#N canvas 0 23 1280 751 12;
#X obj 82 359 noteout;
#X obj 82 333 makenote 64 250;
#X text 112 13 off;
#X floatatom 68 66 0 0 0 0 - - -;
#X obj 74 215 metro 500;
#X msg 68 39 1;
#X msg 100 39 0;
#X text 68 16 on;
#X floatatom 44 287 0 0 0 0 - - -;
#X floatatom 146 185 0 0 0 0 - - -;
#X obj 110 101 metro 1000;
#X obj 128 142 random 1000;
#X obj 78 254 random 100;
#X connect 1 0 0 0;
#X connect 1 1 0 1;
#X connect 3 0 4 0;
#X connect 3 0 10 0;
#X connect 4 0 12 0;
#X connect 5 0 3 0;
#X connect 6 0 3 0;
#X connect 8 0 1 0;
#X connect 9 0 4 1;
#X connect 10 0 11 0;
#X connect 11 0 9 0;
#X connect 12 0 8 0;
