#N canvas 1001 92 523 614 10;
#X obj 37 268 dac~;
#X obj -7 181 osc~;
#X obj 81 182 osc~;
#X obj -6 220 *~ 0.2;
#X obj 79 219 *~ 0.2;
#X obj -8 78 comport 9600;
#X msg -16 47 devices;
#X floatatom -6 102 5 0 0 0 - - -;
#X obj -7 142 * 10;
#X obj 30 142 * 20;
#X obj 42 371 hsl 128 15 0 127 0 0 empty empty empty -2 -8 0 10 -262144
-1 -1 0 1;
#X floatatom 63 401 5 0 0 0 - - -;
#X obj 82 502 comport 9600;
#X msg 189 423 devices;
#X obj -13 411 key;
#X floatatom -33 463 5 0 0 0 - - -;
#X floatatom 81 544 5 0 0 0 - - -;
#X floatatom 144 544 5 0 0 0 - - -;
#X msg 58 47 open 3;
#X msg 129 48 close 3;
#X msg 148 471 open 3;
#X msg 219 472 close 3;
#X connect 1 0 3 0;
#X connect 2 0 4 0;
#X connect 3 0 0 0;
#X connect 4 0 0 1;
#X connect 5 0 7 0;
#X connect 6 0 5 0;
#X connect 7 0 8 0;
#X connect 7 0 9 0;
#X connect 8 0 1 0;
#X connect 9 0 2 0;
#X connect 10 0 11 0;
#X connect 10 0 12 0;
#X connect 12 0 16 0;
#X connect 12 1 17 0;
#X connect 13 0 12 0;
#X connect 14 0 15 0;
#X connect 14 0 12 0;
#X connect 18 0 5 0;
#X connect 19 0 5 0;
#X connect 20 0 12 0;
#X connect 21 0 12 0;
